# xmcd
#
# Track frame offsets:
#	150
#	3246
#	16921
#	39363
#	54248
#	73285
#	89993
#	115099
#	132839
#	149935
#	168635
#	191359
#	211931
#	229206
#	255606
#
# Disc length: 3627 seconds
#
# Revision: 0
# Processed by: cddbd v1.5.1PL2 Copyright (c) Steve Scherf et al.
# Submitted via: dBpowerAMP V4.0
#
DISCID=d80e290f
DTITLE=Blues Gitan - La route de la soie
DYEAR=2003
DGENRE=Blues
TTITLE0=Minor Swing 1937
TTITLE1=Tchavalo Swing
TTITLE2=Jamais trop tard
TTITLE3=La route de la soie
TTITLE4=Condamne
TTITLE5=Himalaya
TTITLE6=Quand on ouvre les yeux
TTITLE7=Karuna
TTITLE8=L'almee phenomene
TTITLE9=Les yeux de maria
TTITLE10=Apsaras
TTITLE11=Fratelli
TTITLE12=Buona sera corsica
TTITLE13=Les bouddha de Bamiyan
TTITLE14=Himalaya - K2
EXTD=
EXTT0=
EXTT1=
EXTT2=
EXTT3=
EXTT4=
EXTT5=
EXTT6=
EXTT7=
EXTT8=
EXTT9=
EXTT10=
EXTT11=
EXTT12=
EXTT13=
EXTT14=
PLAYORDER=
